<?xml version="1.0" encoding="utf-8"?>
<!-- Generator: Adobe Illustrator 14.0.0, SVG Export Plug-In . SVG Version: 6.00 Build 43363)  -->
<!DOCTYPE svg PUBLIC "-//W3C//DTD SVG 1.1//EN" "http://www.w3.org/Graphics/SVG/1.1/DTD/svg11.dtd">
<svg version="1.1" id="Layer_1" xmlns="http://www.w3.org/2000/svg" xmlns:xlink="http://www.w3.org/1999/xlink" x="0px" y="0px"
	 width="750px" height="180px" viewBox="0 0 750 180" enable-background="new 0 0 750 180" xml:space="preserve">
<g>
	<path fill="#FFFFFF" stroke="#000000" stroke-linecap="round" stroke-linejoin="round" d="M705.478,24.083l-655.63-0.348
		c-9.529-0.005-17.258,7.715-17.263,17.246l-0.054,103.52c-0.005,9.529,7.715,17.258,17.244,17.264l655.629,0.346
		c9.529,0.005,17.259-7.715,17.263-17.245l0.056-103.521C722.728,31.816,715.006,24.087,705.478,24.083z M487.257,59.188
		c1.109-1.108,2.457-1.663,4.044-1.662c1.647,0,3.039,0.557,4.182,1.667c1.14,1.11,1.712,2.489,1.711,4.138
		c-0.001,1.586-0.573,2.964-1.715,4.137c-1.143,1.173-2.537,1.757-4.186,1.756c-1.586,0-2.932-0.586-4.039-1.761
		c-1.11-1.173-1.664-2.553-1.663-4.139C485.592,61.676,486.148,60.297,487.257,59.188z M310.943,116.399
		c-0.001,1.459-0.43,2.552-1.285,3.28c-0.858,0.729-1.824,1.093-2.901,1.093c-0.829,0-1.595-0.255-2.295-0.762l-0.043-0.193
		c-0.795,0.3-1.627,0.572-2.036,0.572l-40.707-0.022c-4.934-0.001-9.25-1.515-12.953-4.531c0.011,0.143,0.029,0.281,0.028,0.435
		c0,1.016-0.366,1.95-1.096,2.806c-0.729,0.855-1.824,1.283-3.282,1.282c-7.736-0.005-15.488-0.009-23.254-0.013
		c-7.769-0.004-15.52-0.007-23.254-0.012c-4.842-0.002-9.088-1.459-12.745-4.362c0.003,0.026,0.01,0.05,0.01,0.076
		c0,0.064,0,0.111,0,0.144c0.001,0.032,0,0.079,0.001,0.142c-0.065,1.015-0.445,1.935-1.144,2.758
		c-0.698,0.824-1.775,1.235-3.235,1.234l-40.707-0.021c-5.771-0.003-10.698-2.065-14.786-6.19c-4.086-4.122-6.129-9.07-6.126-14.84
		c0.003-5.833,2.05-10.794,6.142-14.882c4.093-4.087,9.023-6.13,14.794-6.127c3.676,0.002,7.116,0.908,10.317,2.717
		c3.201,1.808,5.752,4.299,7.653,7.47c0.317,0.445,0.522,0.873,0.617,1.284c0.095,0.414,0.143,0.81,0.142,1.189
		c0,1.142-0.415,2.091-1.238,2.852c-0.825,0.76-1.777,1.141-2.854,1.14c-0.635,0-1.269-0.174-1.903-0.524
		c-0.634-0.348-1.204-0.905-1.71-1.665c-1.205-1.965-2.772-3.505-4.705-4.617c-1.934-1.107-4.042-1.665-6.325-1.667
		c-3.552-0.002-6.581,1.25-9.085,3.752c-2.508,2.504-3.76,5.531-3.761,9.081c-0.003,3.552,1.248,6.596,3.751,9.133
		c2.504,2.538,5.53,3.807,9.082,3.809l40.707,0.022c0.23,0,0.447,0.015,0.659,0.036c-2.977-3.725-4.468-8.049-4.465-12.974
		c0.002-5.833,2.05-10.794,6.142-14.881c4.091-4.088,9.023-6.131,14.792-6.128c5.833,0.003,10.794,2.05,14.88,6.143
		c4.089,4.092,6.131,9.056,6.127,14.888c0.001,0.255,0,0.523,0,0.809c0,0.285-0.033,0.587-0.096,0.904
		c-0.064,1.395,0.194,1.336-0.188,2.699c-0.381,1.364-0.921,2.647-1.619,3.851c-0.381,0.697-0.842,1.252-1.379,1.664
		c-0.54,0.413-1.095,0.651-1.666,0.712c-0.127,0.065-0.238,0.095-0.333,0.095c-0.095,0-0.206,0.001-0.333,0
		c-1.015,0-1.949-0.382-2.804-1.143c-0.856-0.761-1.283-1.744-1.283-2.949c0-0.316,0.048-0.667,0.142-1.047
		c0.097-0.38,0.24-0.761,0.43-1.141c0.507-0.887,0.392-0.4,0.616-1.415c0.222-1.014,0.334-2.029,0.334-3.044
		c0.002-3.55-1.248-6.577-3.752-9.085c-2.504-2.505-5.531-3.759-9.081-3.76c-3.552-0.002-6.58,1.249-9.085,3.751
		c-2.507,2.504-3.759,5.532-3.761,9.081c-0.003,3.552,1.263,6.595,3.799,9.133c2.535,2.539,5.546,3.808,9.034,3.81l46.509,0.025
		c0.247,0,0.58,0.059,0.941,0.15c-3.038-3.751-4.56-8.112-4.558-13.089c0.003-5.833,2.051-10.794,6.142-14.881
		c4.092-4.089,9.023-6.131,14.794-6.127c3.675,0.001,7.114,0.908,10.317,2.716c3.2,1.81,5.752,4.3,7.653,7.47
		c0.315,0.446,0.522,0.873,0.618,1.285c0.094,0.413,0.142,0.809,0.141,1.188c0,1.142-0.415,2.092-1.238,2.853
		c-0.825,0.761-1.777,1.14-2.854,1.139c-0.635,0-1.269-0.174-1.902-0.524c-0.634-0.347-1.205-0.904-1.71-1.665
		c-1.205-1.965-2.773-3.505-4.706-4.617c-1.934-1.108-4.041-1.665-6.322-1.666c-3.552-0.002-6.581,1.248-9.085,3.751
		c-2.507,2.504-3.759,5.531-3.761,9.081c-0.002,3.552,1.248,6.596,3.751,9.134c2.503,2.537,5.53,3.807,9.082,3.809l40.706,0.022
		c0.028-0.001,0.174-0.005,0.379-0.013l0.027-50.491c0.001-1.458,0.445-2.567,1.333-3.329c0.888-0.759,1.838-1.108,2.854-1.044
		c1.013,0,1.933,0.367,2.757,1.095c0.824,0.73,1.236,1.825,1.236,3.282L310.943,116.399z M638.02,116.429
		c0.001,0.033,0,0.08,0,0.142c-0.063,1.016-0.443,1.936-1.143,2.759c-0.699,0.825-1.777,1.235-3.234,1.234
		c-3.233-0.002-6.483-0.004-9.748-0.006c-3.267-0.001-6.517-0.003-9.749-0.005c-3.233-0.001-6.484-0.003-9.748-0.005
		c-3.268-0.001-6.517-0.004-9.749-0.005c-1.395-0.001-2.457-0.396-3.186-1.191c-0.729-0.792-1.124-1.666-1.188-2.616
		c-0.001-0.062,0.002-0.109,0.001-0.143c-0.001-0.032,0-0.079-0.001-0.143c0.064-1.013,0.46-1.933,1.19-2.758
		c0.73-0.822,1.793-1.236,3.188-1.234c3.549,0,6.593-1.265,9.132-3.8c2.537-2.534,3.807-5.577,3.808-9.129
		c0.001-3.55-1.266-6.578-3.798-9.085c-2.536-2.504-5.577-3.759-9.129-3.761l-15.931,25.791c1.131,0.092,2.019,0.479,2.651,1.167
		c0.725,0.794,1.123,1.664,1.188,2.616c-0.001,0.065-0.001,0.111-0.002,0.144c0.001,0.032,0.001,0.079,0.001,0.142
		c-0.065,1.015-0.444,1.936-1.145,2.758c-0.698,0.824-1.776,1.235-3.233,1.234l-44.988-0.023c-0.062,0-0.111,0-0.142,0l-0.191-0.389
		l0.048,0.389l-41.466-0.023c-0.684,0-1.331-0.187-1.942-0.563l-0.001,0.001c-0.638,0.374-1.447,0.561-2.431,0.56l-30.911-0.017
		c-1.331,0-2.347-0.381-3.043-1.142c-0.698-0.762-1.044-1.712-1.045-2.853l0.008-17.027c0.004-3.55-1.25-6.577-3.75-9.084
		c-2.505-2.505-5.531-3.76-9.082-3.761c-3.553-0.001-6.597,1.249-9.132,3.752c-2.539,2.503-3.807,5.53-3.811,9.081
		c-0.001,3.615,1.281,6.675,3.848,9.18c2.567,2.507,5.593,3.76,9.082,3.762c0.125,0,0.237,0,0.333,0
		c0.095,0.001,0.173-0.03,0.236-0.095c0.127,0,0.237,0,0.333,0c0.094,0,0.174,0,0.237,0c0.128-0.001,0.239,0,0.333,0
		c0.096,0,0.175,0,0.238-0.001c1.332,0.001,2.347,0.415,3.042,1.239c0.697,0.825,1.046,1.776,1.045,2.854
		c0,0.952-0.318,1.84-0.952,2.663c-0.634,0.824-1.649,1.3-3.045,1.424c-4.861,0.408-9.248-0.713-13.156-3.363l-0.018-0.016
		l0.003,0.007c-0.123,0.77-0.472,1.479-1.047,2.129c-0.73,0.824-1.823,1.234-3.28,1.234l-44.986-0.024c-0.064,0-0.112,0-0.144,0
		c-0.032,0-0.08,0-0.143,0c-0.551-0.036-1.074-0.201-1.572-0.493l-0.025-0.085c-0.751,0.289-1.692,0.576-2.302,0.576l-43.941-0.024
		c-0.063,0.001-0.111,0-0.142,0c-0.033,0-0.081-0.001-0.144,0c-0.95-0.063-1.822-0.508-2.614-1.333
		c-0.793-0.824-1.189-1.713-1.188-2.665c0-0.823,0.001-1.631,0.001-2.425c0.001-0.792,0.001-1.601,0.001-2.425
		c0.002-3.044-1.075-5.659-3.229-7.849c-2.154-2.188-4.787-3.285-7.892-3.286c-1.205,0-2.156-0.445-2.852-1.333
		c-0.698-0.888-1.046-1.87-1.044-2.949c0-0.126,0-0.238,0-0.333c0-0.094,0.032-0.205,0.095-0.333
		c0.062-0.379,0.206-0.775,0.429-1.188c0.221-0.411,0.523-0.774,0.903-1.094l20.267-16.348c0.19-0.127,0.364-0.237,0.523-0.333
		c0.157-0.095,0.3-0.204,0.429-0.332c0.315-0.127,0.649-0.238,0.999-0.333c0.347-0.095,0.648-0.144,0.903-0.143
		c1.077,0,2.013,0.415,2.806,1.239c0.79,0.825,1.187,1.777,1.187,2.854c0,0.127-0.016,0.27-0.048,0.427
		c-0.033,0.16-0.048,0.303-0.048,0.429c-0.129,0.445-0.333,0.873-0.619,1.283c-0.284,0.413-0.651,0.808-1.093,1.189l-13.893,11.312
		c3.169,1.587,5.687,3.934,7.556,7.042c1.868,3.108,2.803,6.468,2.801,10.083c0.001,0.063,0,0.176,0,0.333
		c0,0.159,0.001,0.302,0.001,0.428l39.852,0.021c0.004,0,0.039,0,0.094,0l0.014-25.774l-7.134-0.004
		c-1.393,0-2.457-0.444-3.186-1.333c-0.729-0.888-1.093-1.839-1.093-2.854c0.002-1.014,0.367-1.934,1.096-2.758
		c0.732-0.823,1.825-1.235,3.282-1.235l7.038,0.003l0.009-16.548c0.001-1.458,0.445-2.567,1.334-3.328
		c0.887-0.76,1.84-1.108,2.854-1.045c1.014,0,1.935,0.367,2.759,1.096c0.822,0.73,1.235,1.824,1.235,3.282l-0.009,16.548
		l18.068,0.009c1.457,0.001,2.566,0.43,3.328,1.287c0.761,0.855,1.106,1.824,1.044,2.901c0.002,1.015-0.366,1.935-1.095,2.757
		c-0.729,0.826-1.824,1.237-3.281,1.236l-18.07-0.011l-0.012,25.776l40.096,0.021c-2.955-3.678-4.431-7.989-4.428-12.937
		c0.004-5.833,2.053-10.795,6.144-14.882c4.091-4.088,9.022-6.13,14.794-6.127c5.833,0.003,10.794,2.051,14.882,6.143
		c4.085,4.092,6.13,9.055,6.126,14.888c-0.001,2.156-0.002,4.296-0.003,6.421c-0.002,2.125-0.003,4.297-0.005,6.515l27.107,0.015
		l0.016-29.865c0-1.458,0.444-2.551,1.335-3.281c0.887-0.727,1.837-1.093,2.851-1.092c1.016,0.001,1.936,0.365,2.757,1.094
		c0.822,0.73,1.235,1.825,1.236,3.284l-0.018,29.864l33.577,0.018l-0.003-0.003l0.025-50.596c0.002-1.458,0.446-2.552,1.335-3.28
		c0.888-0.729,1.838-1.095,2.854-1.094c1.014,0,1.934,0.367,2.757,1.097c0.825,0.729,1.235,1.824,1.234,3.282l-0.025,50.598
		l31.802,0.017l0.127,0.001l24.304-39.458c0.506-0.76,1.076-1.315,1.711-1.664c0.635-0.348,1.267-0.522,1.9-0.522
		c1.079,0.001,2.028,0.381,2.853,1.144c0.823,0.76,1.236,1.711,1.237,2.853c-0.001,0.379-0.049,0.777-0.145,1.189
		c-0.096,0.412-0.302,0.839-0.619,1.282l-1.143,1.807c4.692,1.017,8.589,3.429,11.695,7.235c3.105,3.805,4.655,8.215,4.652,13.223
		c-0.001,2.41-0.383,4.708-1.143,6.894c-0.762,2.188-1.842,4.201-3.237,6.038l22.351,0.013c1.394,0,2.455,0.398,3.185,1.19
		c0.729,0.795,1.124,1.665,1.188,2.616C638.021,116.35,638.02,116.396,638.02,116.429z"/>
	<g>
		<circle stroke="#000000" stroke-linecap="round" stroke-linejoin="round" cx="67.037" cy="144.52" r="2.416"/>
		<circle stroke="#000000" stroke-linecap="round" stroke-linejoin="round" cx="67.092" cy="40.999" r="2.416"/>
		<circle stroke="#000000" stroke-linecap="round" stroke-linejoin="round" cx="687.977" cy="144.847" r="2.416"/>
		<circle stroke="#000000" stroke-linecap="round" stroke-linejoin="round" cx="688.031" cy="41.327" r="2.415"/>
	</g>
</g>
</svg>
