<?xml version="1.0" encoding="utf-8"?>
<!-- Generator: Adobe Illustrator 14.0.0, SVG Export Plug-In . SVG Version: 6.00 Build 43363)  -->
<!DOCTYPE svg PUBLIC "-//W3C//DTD SVG 1.1//EN" "http://www.w3.org/Graphics/SVG/1.1/DTD/svg11.dtd">
<svg version="1.1" id="Layer_1" xmlns="http://www.w3.org/2000/svg" xmlns:xlink="http://www.w3.org/1999/xlink" x="0px" y="0px"
	 width="693.25px" height="141.75px" viewBox="0 0 693.25 141.75" enable-background="new 0 0 693.25 141.75" xml:space="preserve">
<g>
	<path fill="#FFFFFF" stroke="#000000" stroke-width="0.5" stroke-linecap="round" stroke-linejoin="round" d="M674.947,2.348
		L19.317,2C9.788,1.995,2.059,9.715,2.054,19.246L2,122.766c-0.005,9.529,7.715,17.258,17.244,17.266l655.629,0.346
		c9.528,0.004,17.259-7.715,17.263-17.246l0.056-103.521C692.197,10.081,684.475,2.352,674.947,2.348z M456.726,37.453
		c1.109-1.108,2.457-1.663,4.044-1.662c1.647,0,3.039,0.557,4.183,1.667c1.14,1.11,1.712,2.489,1.711,4.138
		c-0.001,1.586-0.573,2.964-1.716,4.137c-1.143,1.173-2.536,1.757-4.186,1.756c-1.586,0-2.932-0.586-4.039-1.761
		c-1.11-1.173-1.664-2.553-1.663-4.139C455.061,39.941,455.617,38.562,456.726,37.453z M280.412,94.664
		c-0.001,1.459-0.43,2.553-1.285,3.281c-0.858,0.729-1.824,1.092-2.901,1.092c-0.829,0-1.595-0.254-2.295-0.762l-0.043-0.193
		c-0.795,0.301-1.627,0.572-2.036,0.572l-40.707-0.021c-4.934-0.002-9.25-1.516-12.953-4.531c0.011,0.143,0.029,0.281,0.028,0.436
		c0,1.016-0.366,1.949-1.096,2.805c-0.729,0.855-1.824,1.283-3.282,1.283c-7.736-0.006-15.488-0.01-23.254-0.014
		c-7.769-0.004-15.52-0.008-23.254-0.012c-4.842-0.002-9.088-1.459-12.745-4.361c0.003,0.025,0.01,0.049,0.01,0.074
		c0,0.064,0,0.111,0,0.145c0.001,0.033,0,0.08,0.001,0.143c-0.065,1.016-0.445,1.936-1.144,2.758
		c-0.698,0.824-1.775,1.234-3.235,1.234l-40.707-0.021c-5.771-0.004-10.698-2.064-14.786-6.189
		c-4.086-4.123-6.129-9.071-6.126-14.84c0.003-5.834,2.05-10.794,6.142-14.882c4.093-4.087,9.023-6.13,14.794-6.127
		c3.676,0.002,7.116,0.908,10.317,2.717c3.201,1.808,5.752,4.299,7.653,7.47c0.317,0.445,0.522,0.873,0.617,1.284
		c0.095,0.414,0.143,0.81,0.142,1.189c0,1.143-0.415,2.092-1.238,2.852c-0.825,0.761-1.777,1.142-2.854,1.141
		c-0.635,0-1.269-0.174-1.903-0.523c-0.634-0.349-1.204-0.906-1.71-1.666c-1.205-1.965-2.772-3.504-4.705-4.617
		c-1.934-1.107-4.042-1.665-6.325-1.667c-3.552-0.002-6.581,1.25-9.085,3.752c-2.508,2.504-3.76,5.532-3.761,9.081
		c-0.003,3.553,1.248,6.597,3.751,9.134c2.504,2.538,5.53,3.807,9.082,3.809l40.707,0.023c0.23,0,0.447,0.014,0.659,0.035
		c-2.977-3.725-4.468-8.049-4.465-12.973c0.002-5.834,2.05-10.795,6.142-14.882c4.091-4.088,9.023-6.131,14.792-6.128
		c5.833,0.003,10.794,2.05,14.88,6.143c4.089,4.092,6.131,9.056,6.127,14.888c0.001,0.255,0,0.523,0,0.809s-0.033,0.588-0.096,0.904
		c-0.064,1.395,0.194,1.336-0.188,2.699c-0.381,1.363-0.921,2.646-1.619,3.851c-0.381,0.697-0.842,1.252-1.379,1.664
		c-0.54,0.413-1.095,0.651-1.666,0.712c-0.127,0.064-0.238,0.096-0.333,0.096c-0.095,0-0.206,0-0.333,0
		c-1.015,0-1.949-0.383-2.804-1.144c-0.856-0.761-1.283-1.744-1.283-2.949c0-0.315,0.048-0.667,0.142-1.047
		c0.097-0.38,0.24-0.761,0.43-1.142c0.507-0.887,0.392-0.399,0.616-1.414c0.222-1.014,0.334-2.029,0.334-3.045
		c0.002-3.549-1.248-6.576-3.752-9.084c-2.504-2.505-5.531-3.759-9.081-3.76c-3.552-0.002-6.58,1.249-9.085,3.751
		c-2.507,2.503-3.759,5.532-3.761,9.082c-0.003,3.551,1.263,6.594,3.799,9.133c2.535,2.539,5.546,3.807,9.034,3.809l46.509,0.025
		c0.247,0,0.58,0.059,0.941,0.15c-3.038-3.751-4.56-8.112-4.558-13.089c0.003-5.833,2.051-10.794,6.142-14.881
		c4.092-4.089,9.023-6.131,14.794-6.127c3.675,0.001,7.114,0.908,10.317,2.716c3.2,1.81,5.752,4.3,7.653,7.47
		c0.315,0.446,0.522,0.873,0.618,1.285c0.094,0.413,0.142,0.81,0.141,1.188c0,1.142-0.415,2.092-1.238,2.853
		c-0.825,0.761-1.777,1.14-2.854,1.14c-0.635,0-1.269-0.174-1.902-0.524c-0.634-0.347-1.205-0.904-1.71-1.665
		c-1.205-1.965-2.773-3.505-4.706-4.617c-1.934-1.108-4.041-1.665-6.322-1.666c-3.552-0.002-6.581,1.248-9.085,3.751
		c-2.507,2.505-3.759,5.531-3.761,9.081c-0.002,3.553,1.248,6.596,3.751,9.135c2.503,2.537,5.53,3.807,9.082,3.809l40.706,0.021
		c0.028,0,0.174-0.006,0.379-0.014l0.027-50.491c0.001-1.458,0.445-2.567,1.333-3.329c0.888-0.759,1.838-1.108,2.854-1.044
		c1.013,0,1.933,0.367,2.757,1.095c0.824,0.73,1.236,1.825,1.236,3.282L280.412,94.664z M607.488,94.695
		c0.002,0.031,0,0.078,0,0.141c-0.062,1.016-0.442,1.936-1.143,2.76c-0.699,0.824-1.777,1.234-3.234,1.234
		c-3.232-0.002-6.482-0.004-9.748-0.006c-3.267-0.002-6.517-0.004-9.748-0.006c-3.233-0.002-6.484-0.004-9.748-0.006
		c-3.269,0-6.518-0.004-9.749-0.004c-1.396-0.002-2.457-0.396-3.187-1.191c-0.729-0.791-1.124-1.666-1.188-2.615
		c-0.001-0.062,0.002-0.109,0.001-0.145c-0.001-0.031,0-0.078-0.001-0.143c0.063-1.012,0.46-1.932,1.189-2.758
		c0.73-0.822,1.793-1.236,3.188-1.234c3.549,0,6.593-1.264,9.132-3.799c2.537-2.534,3.807-5.577,3.808-9.129
		c0.001-3.551-1.266-6.578-3.798-9.085c-2.536-2.504-5.577-3.759-9.129-3.761L548.204,90.74c1.131,0.092,2.019,0.479,2.65,1.166
		c0.726,0.795,1.123,1.664,1.188,2.615c-0.001,0.066-0.001,0.111-0.002,0.145c0.001,0.033,0.001,0.08,0.001,0.143
		c-0.065,1.016-0.444,1.936-1.146,2.758c-0.698,0.824-1.775,1.234-3.232,1.234l-44.988-0.023c-0.062,0-0.111,0-0.143,0l-0.19-0.389
		l0.048,0.389l-41.466-0.023c-0.685,0-1.331-0.188-1.942-0.562h-0.001c-0.638,0.375-1.446,0.562-2.431,0.561l-30.911-0.016
		c-1.331,0-2.347-0.383-3.043-1.143c-0.698-0.762-1.044-1.713-1.045-2.854l0.008-17.027c0.004-3.55-1.25-6.577-3.75-9.084
		c-2.505-2.505-5.531-3.76-9.082-3.761c-3.553-0.001-6.597,1.249-9.132,3.752c-2.539,2.502-3.807,5.53-3.811,9.081
		c-0.002,3.615,1.28,6.676,3.848,9.181c2.566,2.507,5.593,3.759,9.082,3.761c0.125,0,0.236,0,0.333,0
		c0.095,0.002,0.173-0.029,0.235-0.094c0.128,0,0.237,0,0.333,0c0.095,0,0.175,0,0.237,0c0.128-0.002,0.239,0,0.333,0
		c0.096,0,0.175,0,0.238-0.002c1.332,0.002,2.347,0.416,3.042,1.24c0.697,0.824,1.046,1.775,1.045,2.854
		c0,0.951-0.318,1.84-0.952,2.662c-0.634,0.824-1.648,1.301-3.045,1.424c-4.861,0.408-9.248-0.713-13.156-3.361l-0.018-0.018
		l0.003,0.008c-0.123,0.77-0.472,1.479-1.047,2.129c-0.73,0.824-1.823,1.234-3.28,1.234l-44.985-0.023c-0.064,0-0.113,0-0.145,0
		c-0.032,0-0.08,0-0.143,0c-0.551-0.037-1.074-0.201-1.572-0.494l-0.025-0.084c-0.751,0.289-1.692,0.574-2.302,0.574l-43.941-0.023
		c-0.063,0.002-0.111,0-0.142,0c-0.033,0-0.081,0-0.144,0c-0.95-0.062-1.822-0.508-2.614-1.332
		c-0.793-0.824-1.189-1.713-1.188-2.666c0-0.822,0.001-1.631,0.001-2.424c0.001-0.793,0.001-1.602,0.001-2.426
		c0.002-3.044-1.075-5.658-3.229-7.849c-2.154-2.188-4.787-3.285-7.892-3.286c-1.205,0-2.156-0.445-2.852-1.333
		c-0.698-0.888-1.046-1.87-1.044-2.948c0-0.127,0-0.238,0-0.334c0-0.094,0.032-0.205,0.095-0.332
		c0.062-0.38,0.206-0.775,0.429-1.188c0.221-0.411,0.523-0.774,0.903-1.095l20.267-16.348c0.19-0.127,0.364-0.237,0.523-0.333
		c0.157-0.095,0.3-0.204,0.429-0.332c0.315-0.127,0.649-0.238,0.999-0.333c0.347-0.095,0.648-0.144,0.903-0.143
		c1.077,0,2.013,0.415,2.806,1.239c0.79,0.825,1.187,1.777,1.187,2.854c0,0.127-0.016,0.27-0.048,0.427
		c-0.033,0.16-0.048,0.303-0.048,0.429c-0.129,0.445-0.333,0.873-0.619,1.283c-0.284,0.413-0.651,0.808-1.093,1.189l-13.893,11.312
		c3.169,1.588,5.687,3.935,7.556,7.043c1.868,3.107,2.803,6.467,2.801,10.082c0.001,0.063,0,0.176,0,0.334s0.001,0.301,0.001,0.428
		l39.852,0.02c0.004,0,0.039,0,0.094,0l0.014-25.773l-7.134-0.004c-1.393,0-2.457-0.444-3.186-1.333
		c-0.729-0.888-1.093-1.839-1.093-2.854c0.002-1.014,0.367-1.934,1.096-2.758c0.732-0.823,1.825-1.235,3.282-1.235l7.038,0.003
		l0.009-16.548c0.001-1.458,0.445-2.567,1.334-3.328c0.887-0.76,1.84-1.108,2.854-1.045c1.015,0,1.936,0.367,2.76,1.096
		c0.822,0.73,1.234,1.824,1.234,3.282l-0.009,16.548l18.068,0.009c1.457,0.001,2.565,0.43,3.328,1.287
		c0.761,0.855,1.105,1.824,1.044,2.901c0.002,1.015-0.366,1.935-1.096,2.757c-0.729,0.826-1.823,1.237-3.28,1.236l-18.07-0.011
		l-0.013,25.776l40.097,0.021c-2.955-3.678-4.431-7.99-4.428-12.938c0.004-5.832,2.053-10.795,6.144-14.882
		c4.091-4.088,9.022-6.13,14.794-6.127c5.833,0.003,10.794,2.051,14.882,6.143c4.085,4.092,6.131,9.055,6.126,14.888
		c-0.001,2.155-0.002,4.296-0.003,6.421c-0.002,2.125-0.003,4.297-0.005,6.516l27.107,0.014l0.016-29.865
		c0-1.458,0.444-2.551,1.335-3.281c0.888-0.727,1.837-1.093,2.852-1.092c1.016,0.001,1.936,0.365,2.757,1.094
		c0.822,0.73,1.234,1.825,1.235,3.284l-0.018,29.864l33.577,0.018l-0.003-0.002l0.025-50.596c0.002-1.458,0.445-2.552,1.335-3.28
		c0.888-0.729,1.838-1.095,2.854-1.094c1.014,0,1.935,0.367,2.757,1.097c0.825,0.729,1.235,1.824,1.234,3.282l-0.025,50.599
		l31.803,0.016l0.127,0.002l24.304-39.458c0.506-0.76,1.076-1.315,1.711-1.664c0.635-0.348,1.267-0.522,1.9-0.522
		c1.078,0.001,2.027,0.381,2.853,1.145c0.823,0.76,1.236,1.711,1.237,2.853c-0.001,0.379-0.049,0.777-0.146,1.189
		c-0.096,0.412-0.302,0.839-0.619,1.282l-1.143,1.807c4.692,1.017,8.589,3.429,11.695,7.235c3.104,3.805,4.654,8.214,4.651,13.223
		c-0.001,2.409-0.383,4.708-1.143,6.894c-0.763,2.188-1.842,4.201-3.237,6.038l22.352,0.014c1.394,0,2.455,0.398,3.185,1.189
		c0.729,0.795,1.124,1.666,1.188,2.617C607.49,94.615,607.488,94.662,607.488,94.695z"/>
	<g>
		
			<circle stroke="#000000" stroke-width="0.5" stroke-linecap="round" stroke-linejoin="round" cx="36.506" cy="122.785" r="2.416"/>
		<circle stroke="#000000" stroke-width="0.5" stroke-linecap="round" stroke-linejoin="round" cx="36.561" cy="19.264" r="2.416"/>
		
			<circle stroke="#000000" stroke-width="0.5" stroke-linecap="round" stroke-linejoin="round" cx="657.445" cy="123.113" r="2.416"/>
		<circle stroke="#000000" stroke-width="0.5" stroke-linecap="round" stroke-linejoin="round" cx="657.5" cy="19.592" r="2.415"/>
	</g>
</g>
</svg>
